<?xml version="1.0" standalone="no"?><!DOCTYPE svg PUBLIC "-//W3C//DTD SVG 1.1//EN" "http://www.w3.org/Graphics/SVG/1.1/DTD/svg11.dtd"><svg t="1559882879360" class="icon" style="" viewBox="0 0 1024 1024" version="1.1" xmlns="http://www.w3.org/2000/svg" p-id="3110" xmlns:xlink="http://www.w3.org/1999/xlink" width="130" height="130"><defs><style type="text/css"></style></defs><path d="M549.12 643.2L440.747 536.107l1.28-1.28c74.24-82.774 127.146-177.92 158.293-278.614h125.013v-85.546H426.667V85.333h-85.334v85.334H42.667v84.906h476.586A673.835 673.835 0 0 1 384 484.267a672.853 672.853 0 0 1-98.56-142.934h-85.333c31.146 69.547 73.813 135.254 127.146 194.56l-216.96 214.4 60.374 60.374L384 597.333l132.693 132.694L549.12 643.2z m240.213-216.533H704l-192 512h85.333l48-128H848l48 128h85.333l-192-512z m-112 298.666l69.334-184.96L816 725.333H677.333z" fill="#FFFFFF" p-id="3111"></path></svg>